<svg xmlns="http://www.w3.org/2000/svg" viewBox="180 180 720 720">
	<style>
		path {
			fill: #1c1917;
		}
		@media (prefers-color-scheme: dark) {
			path {
				fill: #fafaf9;
			}
		}
	</style>
	<path d="M759.18,244.91h98.53l-92.51,444c-23.77,83.49-81.49,135.83-169,144.77l-239.94,1.38L513.72,677.68h90.6c1,0,11.21-3.66,13.18-4.51,8.89-3.85,12.91-8.44,16.14-17.65l53.53-259.38H608Z"/>
	<path d="M332.28,835.09H233.75l92.51-444c23.77-83.49,81.49-135.83,169-144.77l239.94-1.38L577.74,402.32h-90.6c-1,0-11.21,3.66-13.18,4.51-8.89,3.85-12.91,8.44-16.14,17.65L404.29,683.86h79.22Z"/>
</svg>
